<?xml version="1.0" encoding="utf-8"?>
<!-- Generator: Adobe Illustrator 24.0.2, SVG Export Plug-In . SVG Version: 6.00 Build 0)  -->
<svg version="1.1" xmlns="http://www.w3.org/2000/svg" xmlns:xlink="http://www.w3.org/1999/xlink" x="0px" y="0px"
	 viewBox="0 0 24 24" style="enable-background:new 0 0 24 24;" xml:space="preserve">
<style type="text/css">
	.st0{fill:none;}
	.st1{fill:#242424;}
</style>
<g id="bounding_box">
	<rect class="st0" width="24" height="24"/>
</g>
<g id="design">
	<g>
		<g>
			<path class="st1" d="M14.52,4.89C15.43,5.63,16,6.75,16,8v0.48H8V8c0-1.25,0.57-2.37,1.48-3.11L8.05,3.46
				c-0.39-0.39-0.39-1.02,0-1.41s1.03-0.39,1.42,0l1.99,1.99C11.64,4.01,11.82,4,12,4s0.36,0.01,0.54,0.04l1.99-1.99
				c0.39-0.39,1.03-0.39,1.42,0s0.39,1.02,0,1.41L14.52,4.89z"/>
		</g>
		<path class="st1" d="M18,16.59c0,0.14-0.01,0.28-0.02,0.41H20c0.55,0,1,0.45,1,1s-0.45,1-1,1h-2.57
			c-0.82,1.66-2.48,2.83-4.43,2.98V14.2c0-0.55-0.45-1-1-1s-1,0.45-1,1v7.78C9.05,21.83,7.39,20.66,6.57,19H4c-0.55,0-1-0.45-1-1
			s0.45-1,1-1h2.02C6.01,16.87,6,16.73,6,16.59V15.5H4c-0.55,0-1-0.45-1-1s0.45-1,1-1h2V12H4c-0.55,0-1-0.45-1-1s0.45-1,1-1h2
			c0.02,0,0.04,0,0.06,0.01c0-0.01,0.01-0.02,0.01-0.03h11.86c0,0.01,0.01,0.02,0.01,0.03C17.96,10,17.98,10,18,10h2
			c0.55,0,1,0.45,1,1s-0.45,1-1,1h-2v1.5h2c0.55,0,1,0.45,1,1s-0.45,1-1,1h-2V16.59z"/>
	</g>
</g>
</svg>
