<?xml version="1.0" encoding="utf-8"?>
<!-- Generator: Adobe Illustrator 24.0.2, SVG Export Plug-In . SVG Version: 6.00 Build 0)  -->
<svg version="1.1" xmlns="http://www.w3.org/2000/svg" xmlns:xlink="http://www.w3.org/1999/xlink" x="0px" y="0px"
	 viewBox="0 0 24 24" style="enable-background:new 0 0 24 24;" xml:space="preserve">
<style type="text/css">
	.st0{fill:none;}
	.st1{fill:#242424;}
</style>
<g id="bounding_box">
	<rect class="st0" width="24" height="24"/>
</g>
<g id="design">
	<g>
		<g>
			<g>
				<path class="st1" d="M21,10v4c0,1.1-0.9,2-2,2H5c-1.1,0-2-0.9-2-2v-4c0-1.1,0.9-2,2-2h14C20.1,8,21,8.9,21,10z"/>
			</g>
		</g>
		<path class="st1" d="M20,20H4c-0.55,0-1-0.45-1-1s0.45-1,1-1h16c0.55,0,1,0.45,1,1S20.55,20,20,20z"/>
		<path class="st1" d="M20,6H4C3.45,6,3,5.55,3,5s0.45-1,1-1h16c0.55,0,1,0.45,1,1S20.55,6,20,6z"/>
	</g>
</g>
</svg>
