<?xml version="1.0" encoding="utf-8"?>
<!-- Generator: Adobe Illustrator 24.0.2, SVG Export Plug-In . SVG Version: 6.00 Build 0)  -->
<svg version="1.1" xmlns="http://www.w3.org/2000/svg" xmlns:xlink="http://www.w3.org/1999/xlink" x="0px" y="0px"
	 viewBox="0 0 24 24" style="enable-background:new 0 0 24 24;" xml:space="preserve">
<style type="text/css">
	.st0{fill:none;}
	.st1{fill:#121331;}
</style>
<g id="bounding_box">
	<rect class="st0" width="24" height="24"/>
</g>
<g id="design">
	<g>
		<path class="st1" d="M12.64,3.36c-0.27-0.45-1.01-0.45-1.28,0l-1.22,2C10.66,5.72,11,6.32,11,7c0,1.1-0.9,2-2,2
			C8.66,9,8.35,8.92,8.07,8.77l-2.94,4.82C7.21,15.17,9.56,16,12,16s4.79-0.83,6.87-2.41L12.64,3.36z M13,14c-1.1,0-2-0.9-2-2
			c0-1.1,0.9-2,2-2s2,0.9,2,2C15,13.1,14.1,14,13,14z"/>
		<path class="st1" d="M20.72,17.88c-2.5,2.01-5.52,3.07-8.72,3.07s-6.22-1.06-8.72-3.07c-0.29-0.23-0.37-0.65-0.17-0.97l1.24-2.04
			C6.65,16.6,9.27,17.5,12,17.5s5.35-0.9,7.65-2.63l1.24,2.04C21.09,17.23,21.01,17.65,20.72,17.88z"/>
	</g>
</g>
</svg>
