<svg width="94" height="75" viewBox="0 0 94 75" fill="none" xmlns="http://www.w3.org/2000/svg">
<path d="M54.6035 28.4084C54.6035 24.7461 52.0335 22.7244 47.5196 22.7244H39.2166V34.5234H46.2181C51.6217 34.5068 54.6035 32.3193 54.6035 28.4084ZM84.8335 26.2873C83.2685 21.1667 83.0378 14.886 83.219 10.0306C83.4002 4.97623 79.4794 0.336182 74.2077 0.336182H20.0407C14.7525 0.336182 10.8482 4.9928 11.0294 10.0306C11.1941 14.886 10.98 21.1667 9.41493 26.2873C7.83341 31.4245 5.18107 34.6725 0.81543 35.0868V39.8097C5.1646 40.224 7.83341 43.472 9.41493 48.6092C10.98 53.7298 11.2106 60.0105 11.0294 64.8659C10.8482 69.9203 14.769 74.5603 20.0407 74.5603H74.1912C79.4794 74.5603 83.3838 69.9037 83.2026 64.8659C83.0378 60.0105 83.252 53.7298 84.817 48.6092C86.3985 43.472 89.0509 40.224 93.4 39.8097V35.0868C89.0673 34.6725 86.3985 31.4245 84.8335 26.2873ZM49.1176 57.1933H32.9894V17.7032H49.0352C56.1685 17.7032 60.8472 21.581 60.8472 27.5467C60.8472 31.7393 57.7006 35.4845 53.6809 36.1308V36.3462C59.1503 36.9428 62.8241 40.7543 62.8241 46.0075C62.8241 52.9841 57.6677 57.1933 49.1176 57.1933ZM47.4702 39.18H39.2166V52.1721H47.8326C53.4668 52.1721 56.4486 49.9018 56.4486 45.6263C56.4486 41.3674 53.3844 39.18 47.4702 39.18Z" fill="#E4C46E"/>
</svg>
