<svg width="62" height="82" viewBox="0 0 62 82" fill="none" xmlns="http://www.w3.org/2000/svg">
<path d="M2.2605 15.3418C2.2605 6.86873 9.18509 0 17.7271 0H44.2657C52.8076 0 59.7322 6.86873 59.7322 15.3418C59.7322 20.7069 56.9558 25.429 52.7503 28.171C56.9558 30.9132 59.7322 35.6351 59.7322 41.0003C59.7322 49.4734 52.8076 56.3422 44.2657 56.3422H43.9298C39.9253 56.3422 36.2762 54.8325 33.5295 52.3557V66.4916C33.5295 75.0776 26.4239 82 17.8104 82C9.28976 82 2.2605 75.1522 2.2605 66.6581C2.2605 61.2932 5.03669 56.5715 9.24183 53.8293C5.03669 51.0871 2.2605 46.3652 2.2605 41.0003C2.2605 35.6351 5.03694 30.9132 9.24236 28.171C5.03694 25.429 2.2605 20.7069 2.2605 15.3418ZM28.4632 30.6839H17.7271C11.9831 30.6839 7.32671 35.3028 7.32671 41.0003C7.32671 46.6759 11.9472 51.2811 17.6606 51.3166C17.6827 51.3165 17.7048 51.3165 17.7271 51.3165H28.4632V30.6839ZM33.5295 41.0003C33.5295 46.6979 38.1858 51.3168 43.9298 51.3168H44.2657C50.0097 51.3168 54.666 46.6979 54.666 41.0003C54.666 35.3028 50.0097 30.6839 44.2657 30.6839H43.9298C38.1858 30.6839 33.5295 35.3028 33.5295 41.0003ZM17.7271 56.3422C17.7048 56.3422 17.6827 56.342 17.6606 56.342C11.9472 56.3774 7.32671 60.9825 7.32671 66.6581C7.32671 72.3349 12.0453 76.9746 17.8104 76.9746C23.6684 76.9746 28.4632 72.2603 28.4632 66.4916V56.3422H17.7271ZM17.7271 5.02535C11.9831 5.02535 7.32671 9.64418 7.32671 15.3418C7.32671 21.0394 11.9831 25.6582 17.7271 25.6582H28.4632V5.02535H17.7271ZM33.5295 25.6582H44.2657C50.0097 25.6582 54.666 21.0394 54.666 15.3418C54.666 9.64418 50.0097 5.02535 44.2657 5.02535H33.5295V25.6582Z" fill="#E4C46E"/>
</svg>
