<svg width="98" height="98" viewBox="0 0 98 98" fill="none" xmlns="http://www.w3.org/2000/svg">
<g clip-path="url(#clip0_10_351)">
<path d="M96.5454 22.1706C96.5303 22.1261 96.5124 22.0826 96.4918 22.0404C96.4644 21.9581 96.4305 21.8781 96.3904 21.8012C96.3593 21.7533 96.3248 21.7079 96.287 21.6653C96.2449 21.6024 96.1989 21.5423 96.1492 21.4853C96.1052 21.4432 96.0496 21.4088 96.0018 21.3705C95.9472 21.3235 95.8897 21.28 95.8295 21.2403L77.4048 10.6326C77.172 10.4982 76.9079 10.4274 76.6391 10.4274C76.3703 10.4274 76.1063 10.4982 75.8735 10.6326L57.4449 21.2461C57.3858 21.2861 57.3295 21.3303 57.2765 21.3781C57.2243 21.4132 57.1744 21.4516 57.1272 21.493C57.0771 21.549 57.031 21.6084 56.9894 21.671C56.9568 21.7169 56.9147 21.7571 56.886 21.8069C56.8473 21.8842 56.814 21.9642 56.7865 22.0462C56.7712 22.0902 56.7463 22.1304 56.7329 22.1763C56.6978 22.3061 56.6798 22.44 56.6793 22.5744V42.718L41.3247 51.5591V12.1428C41.325 12.0076 41.307 11.8731 41.2711 11.7428C41.2596 11.6968 41.2328 11.6566 41.2175 11.6126C41.1908 11.5309 41.1575 11.4516 41.118 11.3753C41.0912 11.3255 41.0471 11.2853 41.0146 11.2374C40.9725 11.1746 40.9265 11.1145 40.8768 11.0575C40.8291 11.0167 40.7792 10.9783 40.7275 10.9427C40.6739 10.8961 40.6176 10.8527 40.5591 10.8125L22.1286 0.204782C21.8958 0.0703871 21.6317 -0.000366211 21.3629 -0.000366211C21.0941 -0.000366211 20.8301 0.0703871 20.5973 0.204782L2.17062 10.8125C2.1108 10.8516 2.05444 10.8958 2.00218 10.9446C1.9494 10.9796 1.89889 11.018 1.85097 11.0594C1.80147 11.1154 1.75605 11.1749 1.71507 11.2374C1.68062 11.2853 1.63851 11.3255 1.6098 11.3753C1.57058 11.4514 1.53792 11.5309 1.51218 11.6126C1.49128 11.6543 1.47275 11.6971 1.45668 11.7408C1.42146 11.8719 1.40345 12.007 1.40308 12.1428V75.2494C1.40235 75.5189 1.47275 75.7839 1.60719 76.0174C1.74162 76.251 1.93531 76.445 2.16871 76.5797L39.0144 97.7952C39.0963 97.8365 39.1815 97.871 39.269 97.8985C39.3092 97.9138 39.3475 97.9368 39.3896 97.9483C39.6466 98.0172 39.9173 98.0172 40.1743 97.9483C40.2126 97.9387 40.2452 97.9177 40.2796 97.9062C40.372 97.8771 40.4617 97.84 40.5476 97.7952L77.4048 76.5797C77.6382 76.445 77.8318 76.251 77.9663 76.0174C78.1007 75.7839 78.1711 75.5189 78.1704 75.2494V55.102L95.8257 44.9364C96.0605 44.8009 96.2551 44.6054 96.3896 44.37C96.5242 44.1346 96.5938 43.8677 96.5913 43.5966V22.5706C96.5924 22.4359 96.577 22.3015 96.5454 22.1706ZM21.361 3.30748L36.7099 12.1409L21.3591 20.98L6.01214 12.1428L21.361 3.30748ZM38.2526 14.7919V53.3258L29.3465 58.4535L22.898 62.1668V23.6387L31.8041 18.5109L38.2526 14.7919ZM38.2526 93.8005L4.47324 74.3613V14.7995L10.9217 18.509L19.8259 23.6387V64.8254C19.8298 64.8833 19.8375 64.9408 19.8489 64.9977C19.8535 65.0737 19.8637 65.1492 19.8795 65.2236C19.899 65.2829 19.9233 65.3405 19.9523 65.3958C19.9736 65.4618 20.0005 65.5258 20.0327 65.5872C20.068 65.6392 20.1064 65.689 20.1475 65.7365C20.1858 65.793 20.228 65.8467 20.2738 65.8973C20.3178 65.9394 20.3734 65.9701 20.4212 66.0083C20.4735 66.0537 20.5284 66.0959 20.5858 66.1347L38.2316 76.1222L38.2526 93.8005ZM39.7839 73.4789L24.4599 64.8044L40.5552 55.5384L58.2144 45.3728L73.5518 54.2024L62.2971 60.626L39.7839 73.4789ZM75.1021 74.3536L41.3209 93.8101V76.1414L66.3415 61.8625L75.1021 56.8572V74.3536ZM75.1021 51.5514L68.6537 47.8515L59.7475 42.7238V25.2254L66.196 28.9387L75.1021 34.0703V51.5514ZM76.6334 31.4002L61.2826 22.5629L76.6334 13.7276L91.9803 22.561L76.6334 31.4002ZM78.1646 51.5514V34.0703L87.0899 28.9387L93.5365 25.2254V42.718L78.1646 51.5514Z" fill="#E4C46E"/>
</g>
<defs>
<clipPath id="clip0_10_351">
<rect width="98" height="98" fill="white"/>
</clipPath>
</defs>
</svg>
