<svg width="105" height="84" viewBox="0 0 105 84" fill="none" xmlns="http://www.w3.org/2000/svg">
<path d="M49.5205 62.1666C49.4221 62.3438 49.4713 62.265 49.5205 62.1666V62.1666ZM90.3934 47.8932C87.0937 47.8921 83.8379 48.6499 80.8778 50.108C79.9098 48.1557 78.909 46.4494 78.745 45.1697C78.5481 43.6768 78.3348 42.7908 78.5645 41.0189C78.7942 39.2471 79.8278 36.7369 79.8114 36.5564C79.795 36.376 79.5817 35.4736 77.4653 35.4572C75.3489 35.4408 73.5278 35.8674 73.3162 36.4252C72.9424 37.4446 72.6516 38.4925 72.4466 39.5588C72.0693 41.4783 68.2154 48.3361 66.0334 51.9127C65.3115 50.5182 64.7045 49.2877 64.5733 48.3033C64.3764 46.8104 64.1631 45.9244 64.3928 44.1525C64.6225 42.3807 65.6561 39.8705 65.6397 39.69C65.6233 39.5096 65.41 38.6072 63.2952 38.5908C61.1804 38.5744 59.3577 39.001 59.1444 39.5588C58.9312 40.1166 58.7015 41.4291 58.2749 42.6924C57.8483 43.9557 52.7148 55.3744 51.3712 58.3439C50.6821 59.8533 50.0915 61.0674 49.6649 61.8877C49.5993 62.0189 49.5501 62.101 49.5172 62.1666C49.5665 62.0846 49.5993 62.0025 49.5993 62.0353C49.2383 62.7408 49.0251 63.1346 49.0251 63.1346V63.151C48.7462 63.676 48.4344 64.1518 48.2868 64.1518C48.1883 64.1518 47.9751 62.7736 48.336 60.8869C49.1071 56.9166 50.9282 50.7478 50.9118 50.5346C50.8954 50.4197 51.2563 49.3533 49.7141 48.7791C48.2211 48.2377 47.6797 49.14 47.5485 49.14C47.4172 49.14 47.3188 49.4682 47.3188 49.4682C47.3188 49.4682 48.9758 42.5119 44.1376 42.5119C41.1189 42.5119 36.9189 45.826 34.855 48.8283C33.5589 49.5338 30.7534 51.0596 27.8003 52.6838C26.6683 53.3072 25.5034 53.9471 24.4042 54.5541C24.3222 54.4721 24.2565 54.39 24.1745 54.308C18.3027 48.0408 7.46147 43.6111 7.92084 35.1947C8.0849 32.1268 9.15131 24.0713 28.7683 14.2932C44.8464 6.28691 57.7007 8.48535 59.9139 13.3744C63.0967 20.3471 53.0413 33.3244 36.3447 35.1947C29.9807 35.9002 26.6354 33.4393 25.7987 32.5205C24.9292 31.5525 24.7979 31.5033 24.4698 31.6838C23.9284 31.9791 24.2729 32.8322 24.4698 33.3408C24.962 34.6369 27.0128 36.9338 30.5057 38.0822C33.5737 39.083 41.0352 39.6408 50.057 36.1463C60.1928 32.2416 68.0826 21.3643 65.7693 12.2588C63.4133 3.00566 48.0702 -0.029495 33.5622 5.12207C24.9177 8.19004 15.5694 13.0135 8.84451 19.2971C0.85631 26.7783 -0.421737 33.2916 0.103263 36.015C1.97194 45.6783 15.2905 51.9783 20.6209 56.6377C20.3584 56.7854 20.1123 56.9166 19.8826 57.0478C17.2101 58.3768 7.05623 63.6924 4.5149 69.3033C1.64381 75.6689 4.99068 80.2299 7.18748 80.8533C14.0437 82.7564 21.0639 79.3275 24.8357 73.7002C28.6075 68.0729 28.1497 60.7229 26.4107 57.376C26.3943 57.3268 26.3615 57.2939 26.3451 57.2447C27.0341 56.8346 27.7396 56.4244 28.4451 56.0143C29.8051 55.2104 31.134 54.4721 32.2989 53.8322C31.6426 55.6041 31.1669 57.7369 30.9208 60.8213C30.6255 64.4307 32.1184 69.1064 34.0544 70.9439C34.9075 71.7478 35.9394 71.7643 36.5793 71.7643C38.8433 71.7643 39.8605 69.8939 40.9909 67.6627C42.3855 64.9393 43.6159 61.7728 43.6159 61.7728C43.6159 61.7728 42.0737 70.3369 46.2901 70.3369C47.8307 70.3369 49.3729 68.3518 50.0636 67.3346V67.351C50.0636 67.351 50.0964 67.2853 50.1784 67.1541C50.3425 66.908 50.4245 66.7604 50.4245 66.7604V66.7111C51.048 65.6447 52.4097 63.2002 54.4588 59.1643C57.1166 53.9471 59.658 47.4338 59.658 47.4338C59.9035 48.8656 60.2433 50.2796 60.6751 51.6666C61.1345 53.2252 62.1025 54.9314 62.8736 56.5885C62.2501 57.4416 61.8728 57.9338 61.8728 57.9338C61.874 57.9464 61.8798 57.9581 61.8892 57.9666C61.397 58.6228 60.8392 59.3283 60.265 60.0174C58.1666 62.5111 55.6712 65.3658 55.3431 66.1861C54.9494 67.1541 55.0478 67.876 55.8025 68.4338C56.3603 68.8604 57.3447 68.926 58.3766 68.8439C60.2633 68.7127 61.5922 68.2533 62.2321 67.958C63.4117 67.535 64.5265 66.9497 65.5445 66.2189C67.5953 64.7096 68.8422 62.5439 68.7273 59.6893C68.6617 58.1143 68.1531 56.5393 67.5297 55.0627C67.7101 54.8002 67.907 54.5213 68.0875 54.2424C71.3343 49.501 73.8444 44.2969 73.8444 44.2969C74.09 45.7287 74.4298 47.1427 74.8616 48.5297C75.2554 49.8586 76.0248 51.3188 76.7303 52.7461C73.6804 55.2235 71.7937 58.0946 71.1374 59.9813C69.9233 63.4758 70.8749 65.0508 72.6632 65.4118C73.4671 65.5758 74.6155 65.1985 75.4687 64.8375C76.7357 64.4155 77.9303 63.8013 79.0108 63.0164C81.0615 61.5071 83.0451 59.3907 82.9138 56.5196C82.8646 55.2235 82.5037 53.9274 82.0279 52.6805C84.6037 51.5977 87.9489 51.0071 92.2145 51.4993C101.35 52.5657 103.138 58.275 102.793 60.6539C102.449 63.0329 100.529 64.3618 99.8894 64.7555C99.2495 65.1493 99.0526 65.2969 99.1019 65.5922C99.1839 66.0188 99.4792 66.0024 100.021 65.9039C100.775 65.7727 104.81 63.968 104.99 59.5547C105.253 53.9766 99.8894 47.8407 90.3885 47.8899L90.3934 47.8932ZM19.9811 71.633C16.964 74.9307 12.7312 76.1775 10.9117 75.1275C8.95936 73.9922 9.73045 69.1393 13.453 65.625C15.7171 63.4922 18.6358 61.5235 20.5717 60.3094C21.0147 60.0469 21.6545 59.6532 22.442 59.1774C22.5733 59.0954 22.6389 59.0625 22.6389 59.0625C22.7865 58.9641 22.9506 58.8821 23.1147 58.7836C24.4747 63.7711 23.1639 68.168 19.9811 71.6297V71.633ZM42.0245 56.6377C40.9745 59.2135 38.7613 65.776 37.416 65.4314C36.2676 65.1361 35.5621 60.1322 37.1863 55.2103C38.0066 52.733 39.7457 49.7799 40.7793 48.6314C42.4347 46.7775 44.2558 46.1869 44.6823 46.9252C45.2565 47.8932 42.6808 55.0299 42.0245 56.6377ZM60.2354 65.333C59.7925 65.5627 59.3823 65.7104 59.1854 65.5955C59.0378 65.5135 59.3659 65.2018 59.3659 65.2018C59.3659 65.2018 61.6464 62.7572 62.5487 61.6416C63.0737 60.9853 63.6808 60.2143 64.3354 59.3611C64.3354 59.4432 64.3518 59.5252 64.3518 59.6236C64.3304 62.5604 61.5102 64.5455 60.2305 65.333H60.2354ZM74.2759 62.1338C73.9478 61.9041 73.997 61.133 75.0962 58.7377C75.5228 57.8025 76.5055 56.2275 78.2134 54.7182C78.4067 55.2895 78.5119 55.887 78.5251 56.49C78.5087 60.1814 75.8673 61.5596 74.2776 62.1338H74.2759Z" fill="#E4C46E"/>
</svg>
