<svg width="112" height="56" viewBox="0 0 112 56" fill="none" xmlns="http://www.w3.org/2000/svg">
<path d="M56 2.79501C85.995 2.79501 109.06 14.8069 109.06 28C109.06 41.1931 85.9775 53.205 56 53.205C26.005 53.205 2.94 41.1931 2.94 28C2.94 14.8069 26.0225 2.79501 56 2.79501ZM56 0C25.0775 0 0 12.5276 0 28C0 43.4724 25.0775 56 56 56C86.9225 56 112 43.4724 112 28C112 12.5276 86.9225 0 56 0ZM38.185 25.754C36.8025 32.492 31.92 31.7932 25.9175 31.7932L28.315 20.0475C34.965 20.0475 39.48 19.3654 38.185 25.754ZM17.045 43.6886H23.4675L24.99 36.2353C32.1825 36.2353 36.645 36.7344 40.775 33.0576C45.3425 29.0648 46.5325 21.9608 43.2775 18.4005C41.58 16.5371 38.85 15.6221 35.14 15.6221H22.7675L17.045 43.6886ZM49.5425 8.15211H55.93L54.4075 15.6055C59.92 15.6055 65.03 15.2228 67.4975 17.3856C70.0875 19.6482 68.845 22.5431 66.045 36.202H59.57C62.265 22.9923 62.7725 21.8942 61.7925 20.896C60.8475 19.9311 58.695 20.1307 53.4975 20.1307L50.2075 36.202H43.82L49.5425 8.15211ZM88.375 25.754C86.975 32.5918 81.9525 31.7932 76.1075 31.7932L78.505 20.0475C85.19 20.0475 89.67 19.3654 88.375 25.754ZM67.235 43.6886H73.675L75.1975 36.2353C82.7575 36.2353 86.94 36.6512 90.9825 33.0576C95.55 29.0648 96.74 21.9608 93.485 18.4005C91.7875 16.5371 89.0575 15.6221 85.3475 15.6221H72.975L67.235 43.6886Z" fill="#E4C46E"/>
</svg>
