<svg width="62" height="82" viewBox="0 0 62 82" fill="none" xmlns="http://www.w3.org/2000/svg">
<path d="M2.26041 15.3418C2.26041 6.86873 9.185 0 17.727 0H44.2656C52.8075 0 59.7322 6.86873 59.7322 15.3418C59.7322 20.7069 56.9557 25.429 52.7502 28.171C56.9557 30.9132 59.7322 35.6351 59.7322 41.0003C59.7322 49.4734 52.8075 56.3422 44.2656 56.3422H43.9297C39.9252 56.3422 36.2761 54.8325 33.5294 52.3557V66.4916C33.5294 75.0776 26.4238 82 17.8103 82C9.28967 82 2.26041 75.1522 2.26041 66.6581C2.26041 61.2932 5.0366 56.5715 9.24174 53.8293C5.0366 51.0871 2.26041 46.3652 2.26041 41.0003C2.26041 35.6351 5.03684 30.9132 9.24227 28.171C5.03684 25.429 2.26041 20.7069 2.26041 15.3418ZM28.4632 30.6839H17.727C11.983 30.6839 7.32661 35.3028 7.32661 41.0003C7.32661 46.6759 11.9471 51.2811 17.6605 51.3166C17.6826 51.3165 17.7047 51.3165 17.727 51.3165H28.4632V30.6839ZM33.5294 41.0003C33.5294 46.6979 38.1857 51.3168 43.9297 51.3168H44.2656C50.0096 51.3168 54.6659 46.6979 54.6659 41.0003C54.6659 35.3028 50.0096 30.6839 44.2656 30.6839H43.9297C38.1857 30.6839 33.5294 35.3028 33.5294 41.0003ZM17.727 56.3422C17.7047 56.3422 17.6826 56.342 17.6605 56.342C11.9471 56.3774 7.32661 60.9825 7.32661 66.6581C7.32661 72.3349 12.0452 76.9746 17.8103 76.9746C23.6683 76.9746 28.4632 72.2603 28.4632 66.4916V56.3422H17.727ZM17.727 5.02535C11.983 5.02535 7.32661 9.64418 7.32661 15.3418C7.32661 21.0394 11.983 25.6582 17.727 25.6582H28.4632V5.02535H17.727ZM33.5294 25.6582H44.2656C50.0096 25.6582 54.6659 21.0394 54.6659 15.3418C54.6659 9.64418 50.0096 5.02535 44.2656 5.02535H33.5294V25.6582Z" fill="#242423"/>
</svg>
