<svg width="427" height="446" viewBox="0 0 427 446" fill="none" xmlns="http://www.w3.org/2000/svg">
<rect x="1.5" y="89.5" width="323" height="315" stroke="#FCF41A" stroke-width="3"/>
<rect x="99.5" y="129.5" width="323" height="315" stroke="#E4C46E" stroke-width="3"/>
<g clip-path="url(#clip0_26_1815)">
<ellipse cx="225.759" cy="245.873" rx="187.365" ry="190.353" fill="#242423"/>
<path d="M251.565 312.671L261.45 249.91L194.731 222.295L184.847 317.692L251.565 312.671Z" fill="#A0616A"/>
<path d="M318.62 405.424C312.891 408.261 307.054 410.822 301.13 413.095C289.28 417.65 277.049 421.087 264.502 423.382C252.238 425.631 239.647 426.773 227.055 426.773C210.045 426.773 193.133 424.7 176.778 420.599C170.373 419.003 163.914 417.052 157.564 414.779C156.898 414.535 156.222 414.292 155.556 414.047C147.678 411.144 139.931 407.74 132.479 403.894C131.475 403.384 130.472 402.863 129.468 402.308C128.355 401.733 127.253 401.123 126.14 400.491C124.722 399.704 123.314 398.883 121.907 398.052C117.193 395.281 112.556 392.288 108.126 389.173L107.832 388.974C107.57 388.786 107.308 388.608 107.057 388.42C107.22 387.544 107.373 386.745 107.515 386.036C108.061 383.254 108.421 381.724 108.421 381.724L138.295 319.027L146.62 301.558L150.679 299.862L181.339 287.059H256.275L279.919 296.991C279.919 296.991 280.039 297.445 280.279 298.321C282.636 306.912 296.383 355.686 317.714 403.406C318.009 404.071 318.314 404.747 318.62 405.424Z" fill="#FBFB72"/>
<path d="M234.705 270.085C272.281 270.085 302.742 239.138 302.742 200.964C302.742 162.789 272.281 131.842 234.705 131.842C197.129 131.842 166.668 162.789 166.668 200.964C166.668 239.138 197.129 270.085 234.705 270.085Z" fill="#A0616A"/>
<path d="M150.798 299.267L150.681 299.861L129.938 400.058L129.758 400.931L129.469 402.311C128.353 401.732 127.252 401.121 126.144 400.495C124.723 399.702 123.318 398.885 121.905 398.052C117.197 395.284 112.56 392.286 108.125 389.177L107.829 388.97C107.571 388.788 107.306 388.606 107.056 388.423C103.668 386.02 100.365 383.514 97.1412 380.928C97.1178 380.912 97.1022 380.896 97.0787 380.872C91.3251 376.161 85.7822 371.093 80.4813 365.708C77.0619 362.234 73.7752 358.657 70.629 354.984L71.1053 352.954L71.1521 352.748L71.7454 350.162C77.0229 327.518 94.8772 310.14 117.369 305.762L147.254 299.949L150.798 299.267Z" fill="#FBFB72"/>
<path d="M362.689 376.126C353.884 383.741 344.446 390.637 334.484 396.689C333.513 397.288 332.52 397.874 331.527 398.462C327.294 400.946 322.984 403.262 318.62 405.424C312.892 408.261 307.054 410.822 301.13 413.095L300.671 410.899L277.246 297.733L280.279 298.321L310.677 304.24C333.164 308.619 351.025 326 356.295 348.646L362.111 373.665L362.689 376.126Z" fill="#FBFB72"/>
<path d="M313.055 219.441C311.288 226.136 302.395 256.054 279.624 262.35C275.151 263.592 264.48 265.022 267.306 262.35C267.949 261.741 268.571 261.142 269.193 260.554C293.907 236.944 303.988 222.512 299.384 190.476C296.46 170.079 263.16 151.556 244.425 149.716C236.526 148.941 226.444 151.656 219.789 158.651C208.801 170.179 210.612 205.563 204.524 226.347C202.888 231.911 200.695 236.434 197.541 239.172C195.577 240.879 194.323 238.706 193.395 235.148C191.42 227.588 190.908 213.743 188.103 217.656C179.997 228.996 187.721 244.027 190.056 249.825C190.536 251.011 191.027 252.152 191.518 253.239V253.25C191.802 253.87 192.097 254.491 192.38 255.079V255.09C200.171 271.229 209.532 277.004 217.781 287.059C221.022 290.994 224.088 295.572 226.826 301.691C228.703 305.881 230.056 310.093 230.983 314.228C235.708 334.957 230.099 353.79 228.583 358.912C225.408 369.575 219.952 387.898 203.946 398.24C183.848 411.233 165.507 399.782 156.734 412.119C156.625 412.263 156.527 412.407 156.429 412.551C156.101 413.05 155.807 413.549 155.556 414.047C147.678 411.144 139.931 407.74 132.479 403.894C131.475 403.384 130.472 402.863 129.468 402.308C128.355 401.732 127.253 401.123 126.14 400.491C126.096 399.626 126.053 398.762 126.02 397.886C125.376 382.888 126.347 366.405 130.024 349.966C132.381 339.469 134.716 329.059 138.295 319.027C140.63 312.488 143.488 306.102 147.253 299.95C150.264 295.006 153.843 290.207 158.185 285.595C167.722 275.475 176.2 271.252 177.542 260.565C179.462 245.313 163.826 240.724 158.185 217.656C154.334 201.882 150.308 179.147 154.214 163.828C157.902 149.351 161.11 136.792 171.813 124.487C174.388 121.538 195.523 101.031 220.007 97.6612C231.289 96.1208 241.349 110.797 254.987 113.956C270.666 117.582 279.646 119.655 288.418 126.471C303.246 137.977 307.425 155.182 311.299 171.166C314.332 183.67 318.26 199.843 313.055 219.441Z" fill="#2F2E41"/>
</g>
<rect x="39.5" y="49.5" width="323" height="315" stroke="black" stroke-width="3"/>
<defs>
<clipPath id="clip0_26_1815">
<rect width="405" height="366" fill="white" transform="translate(22)"/>
</clipPath>
</defs>
</svg>
