<svg width="57" height="57" viewBox="0 0 57 57" fill="none" xmlns="http://www.w3.org/2000/svg">
<path fill-rule="evenodd" clip-rule="evenodd" d="M30.8014 20.1139C30.9668 19.948 31.1634 19.8164 31.3798 19.7266C31.5962 19.6368 31.8282 19.5906 32.0625 19.5906C32.2968 19.5906 32.5288 19.6368 32.7452 19.7266C32.9616 19.8164 33.1582 19.948 33.3236 20.1139L40.4486 27.2389C40.6145 27.4043 40.7461 27.6009 40.8359 27.8173C40.9257 28.0337 40.9719 28.2657 40.9719 28.5C40.9719 28.7343 40.9257 28.9663 40.8359 29.1827C40.7461 29.3991 40.6145 29.5957 40.4486 29.7611L33.3236 36.8861C32.9892 37.2206 32.5355 37.4085 32.0625 37.4085C31.5895 37.4085 31.1358 37.2206 30.8014 36.8861C30.4669 36.5517 30.279 36.098 30.279 35.625C30.279 35.152 30.4669 34.6984 30.8014 34.3639L36.6688 28.5L30.8014 22.6361C30.6355 22.4707 30.5039 22.2741 30.4141 22.0577C30.3243 21.8413 30.2781 21.6093 30.2781 21.375C30.2781 21.1407 30.3243 20.9087 30.4141 20.6923C30.5039 20.4759 30.6355 20.2793 30.8014 20.1139ZM26.1986 20.1139C26.0332 19.948 25.8366 19.8164 25.6202 19.7266C25.4038 19.6368 25.1718 19.5906 24.9375 19.5906C24.7032 19.5906 24.4712 19.6368 24.2548 19.7266C24.0384 19.8164 23.8418 19.948 23.6764 20.1139L16.5514 27.2389C16.3855 27.4043 16.2539 27.6009 16.1641 27.8173C16.0743 28.0337 16.0281 28.2657 16.0281 28.5C16.0281 28.7343 16.0743 28.9663 16.1641 29.1827C16.2539 29.3991 16.3855 29.5957 16.5514 29.7611L23.6764 36.8861C24.0108 37.2206 24.4645 37.4085 24.9375 37.4085C25.4105 37.4085 25.8642 37.2206 26.1986 36.8861C26.5331 36.5517 26.721 36.098 26.721 35.625C26.721 35.152 26.5331 34.6984 26.1986 34.3639L20.3312 28.5L26.1986 22.6361C26.3645 22.4707 26.4961 22.2741 26.5859 22.0577C26.6757 21.8413 26.7219 21.6093 26.7219 21.375C26.7219 21.1407 26.6757 20.9087 26.5859 20.6923C26.4961 20.4759 26.3645 20.2793 26.1986 20.1139Z" fill="black"/>
<path d="M10.6875 0H46.3125C48.2022 0 50.0144 0.750668 51.3506 2.08686C52.6868 3.42306 53.4375 5.23533 53.4375 7.125V49.875C53.4375 51.7647 52.6868 53.5769 51.3506 54.9131C50.0144 56.2493 48.2022 57 46.3125 57H10.6875C8.79783 57 6.98556 56.2493 5.64936 54.9131C4.31317 53.5769 3.5625 51.7647 3.5625 49.875V46.3125H7.125V49.875C7.125 50.8198 7.50033 51.726 8.16843 52.3941C8.83653 53.0622 9.74267 53.4375 10.6875 53.4375H46.3125C47.2573 53.4375 48.1635 53.0622 48.8316 52.3941C49.4997 51.726 49.875 50.8198 49.875 49.875V7.125C49.875 6.18017 49.4997 5.27403 48.8316 4.60593C48.1635 3.93783 47.2573 3.5625 46.3125 3.5625H10.6875C9.74267 3.5625 8.83653 3.93783 8.16843 4.60593C7.50033 5.27403 7.125 6.18017 7.125 7.125V10.6875H3.5625V7.125C3.5625 5.23533 4.31317 3.42306 5.64936 2.08686C6.98556 0.750668 8.79783 0 10.6875 0Z" fill="black"/>
<path d="M3.5625 17.8125V16.0312C3.5625 15.5588 3.75017 15.1058 4.08422 14.7717C4.41827 14.4377 4.87133 14.25 5.34375 14.25C5.81617 14.25 6.26923 14.4377 6.60328 14.7717C6.93733 15.1058 7.125 15.5588 7.125 16.0312V17.8125H8.90625C9.37867 17.8125 9.83173 18.0002 10.1658 18.3342C10.4998 18.6683 10.6875 19.1213 10.6875 19.5938C10.6875 20.0662 10.4998 20.5192 10.1658 20.8533C9.83173 21.1873 9.37867 21.375 8.90625 21.375H1.78125C1.30883 21.375 0.855765 21.1873 0.521716 20.8533C0.187667 20.5192 0 20.0662 0 19.5938C0 19.1213 0.187667 18.6683 0.521716 18.3342C0.855765 18.0002 1.30883 17.8125 1.78125 17.8125H3.5625ZM3.5625 28.5V26.7188C3.5625 26.2463 3.75017 25.7933 4.08422 25.4592C4.41827 25.1252 4.87133 24.9375 5.34375 24.9375C5.81617 24.9375 6.26923 25.1252 6.60328 25.4592C6.93733 25.7933 7.125 26.2463 7.125 26.7188V28.5H8.90625C9.37867 28.5 9.83173 28.6877 10.1658 29.0217C10.4998 29.3558 10.6875 29.8088 10.6875 30.2812C10.6875 30.7537 10.4998 31.2067 10.1658 31.5408C9.83173 31.8748 9.37867 32.0625 8.90625 32.0625H1.78125C1.30883 32.0625 0.855765 31.8748 0.521716 31.5408C0.187667 31.2067 0 30.7537 0 30.2812C0 29.8088 0.187667 29.3558 0.521716 29.0217C0.855765 28.6877 1.30883 28.5 1.78125 28.5H3.5625ZM3.5625 39.1875V37.4062C3.5625 36.9338 3.75017 36.4808 4.08422 36.1467C4.41827 35.8127 4.87133 35.625 5.34375 35.625C5.81617 35.625 6.26923 35.8127 6.60328 36.1467C6.93733 36.4808 7.125 36.9338 7.125 37.4062V39.1875H8.90625C9.37867 39.1875 9.83173 39.3752 10.1658 39.7092C10.4998 40.0433 10.6875 40.4963 10.6875 40.9688C10.6875 41.4412 10.4998 41.8942 10.1658 42.2283C9.83173 42.5623 9.37867 42.75 8.90625 42.75H1.78125C1.30883 42.75 0.855765 42.5623 0.521716 42.2283C0.187667 41.8942 0 41.4412 0 40.9688C0 40.4963 0.187667 40.0433 0.521716 39.7092C0.855765 39.3752 1.30883 39.1875 1.78125 39.1875H3.5625Z" fill="black"/>
</svg>
