<svg width="86" height="92" viewBox="0 0 86 92" fill="none" xmlns="http://www.w3.org/2000/svg">
<path d="M0 5.75V86.25H86V5.75H0ZM46.8009 68.5328C46.8009 76.3672 41.8866 79.943 34.7263 79.943C28.2571 79.943 24.5138 76.8164 22.5942 73.025L29.1786 69.3055C30.4455 71.4078 31.5973 73.1867 34.3808 73.1867C37.0299 73.1867 38.7192 72.2164 38.7192 68.425V42.7117H46.8009V68.5328ZM65.9205 79.943C58.4147 79.943 53.558 76.6008 51.1969 72.2164L57.7812 68.6586C59.5089 71.3 61.7741 73.2586 65.7478 73.2586C69.0879 73.2586 71.2379 71.6953 71.2379 69.5211C71.2379 66.9336 69.0496 66.0172 65.3446 64.4898L63.329 63.6812C57.4933 61.3633 53.6348 58.4344 53.6348 52.2711C53.6348 46.593 58.2612 42.2805 65.4598 42.2805C70.6045 42.2805 74.2902 43.9516 76.9393 48.3359L70.6429 52.1094C69.2607 49.7914 67.7634 48.875 65.4406 48.875C63.0795 48.875 61.5821 50.2766 61.5821 52.1094C61.5821 54.3734 63.0795 55.2898 66.554 56.7094L68.5696 57.518C75.442 60.2672 79.3004 63.0883 79.3004 69.4133C79.3004 76.2055 73.5799 79.943 65.9205 79.943Z" fill="#242423"/>
</svg>
