<svg width="98" height="98" viewBox="0 0 98 98" fill="none" xmlns="http://www.w3.org/2000/svg">
<g clip-path="url(#clip0_9_284)">
<path d="M96.5453 22.1706C96.5303 22.1261 96.5124 22.0826 96.4917 22.0404C96.4643 21.9581 96.4304 21.8781 96.3903 21.8012C96.3593 21.7533 96.3247 21.7079 96.2869 21.6653C96.2448 21.6024 96.1988 21.5423 96.1491 21.4853C96.1051 21.4432 96.0496 21.4088 96.0017 21.3705C95.9471 21.3235 95.8896 21.28 95.8295 21.2403L77.4047 10.6326C77.1719 10.4982 76.9079 10.4274 76.6391 10.4274C76.3703 10.4274 76.1062 10.4982 75.8735 10.6326L57.4449 21.2461C57.3857 21.2861 57.3294 21.3303 57.2764 21.3781C57.2243 21.4132 57.1744 21.4516 57.1271 21.493C57.077 21.549 57.0309 21.6084 56.9893 21.671C56.9568 21.7169 56.9147 21.7571 56.886 21.8069C56.8472 21.8842 56.814 21.9642 56.7864 22.0462C56.7711 22.0902 56.7462 22.1304 56.7328 22.1763C56.6977 22.3061 56.6797 22.44 56.6792 22.5744V42.718L41.3246 51.5591V12.1428C41.3249 12.0076 41.3069 11.8731 41.271 11.7428C41.2595 11.6968 41.2327 11.6566 41.2174 11.6126C41.1907 11.5309 41.1574 11.4516 41.1179 11.3753C41.0911 11.3255 41.0471 11.2853 41.0145 11.2374C40.9725 11.1746 40.9264 11.1145 40.8767 11.0575C40.829 11.0167 40.7792 10.9783 40.7274 10.9427C40.6738 10.8961 40.6176 10.8527 40.559 10.8125L22.1285 0.204782C21.8957 0.0703871 21.6317 -0.000366211 21.3629 -0.000366211C21.0941 -0.000366211 20.83 0.0703871 20.5972 0.204782L2.17056 10.8125C2.11074 10.8516 2.05438 10.8958 2.00212 10.9446C1.94934 10.9796 1.89883 11.018 1.85091 11.0594C1.80141 11.1154 1.75599 11.1749 1.71501 11.2374C1.68056 11.2853 1.63845 11.3255 1.60974 11.3753C1.57052 11.4514 1.53786 11.5309 1.51212 11.6126C1.49122 11.6543 1.47268 11.6971 1.45661 11.7408C1.4214 11.8719 1.40339 12.007 1.40302 12.1428V75.2494C1.40229 75.5189 1.47269 75.7839 1.60712 76.0174C1.74156 76.251 1.93525 76.445 2.16865 76.5797L39.0144 97.7952C39.0963 97.8365 39.1814 97.871 39.2689 97.8985C39.3091 97.9138 39.3474 97.9368 39.3895 97.9483C39.6466 98.0172 39.9172 98.0172 40.1743 97.9483C40.2126 97.9387 40.2451 97.9177 40.2795 97.9062C40.372 97.8771 40.4616 97.84 40.5475 97.7952L77.4047 76.5797C77.6381 76.445 77.8318 76.251 77.9662 76.0174C78.1007 75.7839 78.1711 75.5189 78.1703 75.2494V55.102L95.8256 44.9364C96.0605 44.8009 96.2551 44.6054 96.3896 44.37C96.5241 44.1346 96.5937 43.8677 96.5913 43.5966V22.5706C96.5923 22.4359 96.5769 22.3015 96.5453 22.1706ZM21.361 3.30748L36.7098 12.1409L21.359 20.98L6.01208 12.1428L21.361 3.30748ZM38.2526 14.7919V53.3258L29.3464 58.4535L22.8979 62.1668V23.6387L31.8041 18.5109L38.2526 14.7919ZM38.2526 93.8005L4.47318 74.3613V14.7995L10.9217 18.509L19.8259 23.6387V64.8254C19.8298 64.8833 19.8374 64.9408 19.8488 64.9977C19.8534 65.0737 19.8637 65.1492 19.8795 65.2236C19.8989 65.2829 19.9233 65.3405 19.9522 65.3958C19.9735 65.4618 20.0004 65.5258 20.0326 65.5872C20.068 65.6392 20.1063 65.689 20.1474 65.7365C20.1857 65.793 20.2279 65.8467 20.2738 65.8973C20.3178 65.9394 20.3733 65.9701 20.4211 66.0083C20.4734 66.0537 20.5284 66.0959 20.5858 66.1347L38.2315 76.1222L38.2526 93.8005ZM39.7838 73.4789L24.4598 64.8044L40.5552 55.5384L58.2143 45.3728L73.5517 54.2024L62.297 60.626L39.7838 73.4789ZM75.1021 74.3536L41.3208 93.8101V76.1414L66.3414 61.8625L75.1021 56.8572V74.3536ZM75.1021 51.5514L68.6536 47.8515L59.7475 42.7238V25.2254L66.196 28.9387L75.1021 34.0703V51.5514ZM76.6333 31.4002L61.2826 22.5629L76.6333 13.7276L91.9803 22.561L76.6333 31.4002ZM78.1646 51.5514V34.0703L87.0899 28.9387L93.5364 25.2254V42.718L78.1646 51.5514Z" fill="#242423"/>
</g>
<defs>
<clipPath id="clip0_9_284">
<rect width="98" height="98" fill="white"/>
</clipPath>
</defs>
</svg>
