<svg width="106" height="54" viewBox="0 0 106 54" fill="none" xmlns="http://www.w3.org/2000/svg">
<path d="M52.9933 3.59529C81.3778 3.59529 103.204 14.975 103.204 27.4737C103.204 39.9724 81.3613 51.3521 52.9933 51.3521C24.6088 51.3521 2.78215 39.9724 2.78215 27.4737C2.78215 14.975 24.6253 3.59529 52.9933 3.59529ZM52.9933 0.947388C23.7311 0.947388 0 12.8157 0 27.4737C0 42.1317 23.7311 54 52.9933 54C82.2555 54 105.987 42.1317 105.987 27.4737C105.987 12.8157 82.2555 0.947388 52.9933 0.947388ZM36.1348 25.3459C34.8265 31.7293 30.2062 31.0673 24.526 31.0673L26.7947 19.9398C33.0877 19.9398 37.3603 19.2936 36.1348 25.3459ZM16.1298 42.3366H22.2075L23.6483 35.2756C30.4546 35.2756 34.6775 35.7484 38.5857 32.2651C42.908 28.4824 44.0341 21.7523 40.9539 18.3794C39.3475 16.6141 36.7641 15.7473 33.2533 15.7473H21.5451L16.1298 42.3366ZM46.8825 8.67044H52.927L51.4863 15.7315C56.7028 15.7315 61.5385 15.369 63.8735 17.418C66.3244 19.5615 65.1486 22.304 62.499 35.244H56.3716C58.9219 22.7295 59.4022 21.6893 58.4748 20.7436C57.5805 19.8295 55.5436 20.0186 50.6252 20.0186L47.5118 35.244H41.4672L46.8825 8.67044ZM83.63 25.3459C82.3052 31.8238 77.5524 31.0673 72.0212 31.0673L74.29 19.9398C80.616 19.9398 84.8555 19.2936 83.63 25.3459ZM63.6251 42.3366H69.7193L71.1601 35.2756C78.3141 35.2756 82.2721 35.6696 86.0975 32.2651C90.4198 28.4824 91.5459 21.7523 88.4657 18.3794C86.8593 16.6141 84.2759 15.7473 80.7651 15.7473H69.0569L63.6251 42.3366Z" fill="#242423"/>
</svg>
