<svg width="105" height="84" viewBox="0 0 105 84" fill="none" xmlns="http://www.w3.org/2000/svg">
<path d="M49.5206 62.1666C49.4222 62.3438 49.4714 62.265 49.5206 62.1666V62.1666ZM90.3935 47.8932C87.0938 47.8921 83.838 48.6499 80.8779 50.108C79.9099 48.1557 78.9091 46.4494 78.7451 45.1697C78.5482 43.6768 78.3349 42.7908 78.5646 41.0189C78.7943 39.2471 79.8279 36.7369 79.8115 36.5564C79.7951 36.376 79.5818 35.4736 77.4654 35.4572C75.349 35.4408 73.5279 35.8674 73.3162 36.4252C72.9425 37.4446 72.6517 38.4925 72.4467 39.5588C72.0694 41.4783 68.2155 48.3361 66.0335 51.9127C65.3116 50.5182 64.7046 49.2877 64.5733 48.3033C64.3765 46.8104 64.1632 45.9244 64.3929 44.1525C64.6226 42.3807 65.6562 39.8705 65.6398 39.69C65.6234 39.5096 65.4101 38.6072 63.2953 38.5908C61.1805 38.5744 59.3578 39.001 59.1445 39.5588C58.9312 40.1166 58.7016 41.4291 58.275 42.6924C57.8484 43.9557 52.7149 55.3744 51.3712 58.3439C50.6822 59.8533 50.0916 61.0674 49.665 61.8877C49.5994 62.0189 49.5502 62.101 49.5173 62.1666C49.5666 62.0846 49.5994 62.0025 49.5994 62.0353C49.2384 62.7408 49.0252 63.1346 49.0252 63.1346V63.151C48.7462 63.676 48.4345 64.1518 48.2869 64.1518C48.1884 64.1518 47.9752 62.7736 48.3361 60.8869C49.1072 56.9166 50.9283 50.7478 50.9119 50.5346C50.8955 50.4197 51.2564 49.3533 49.7142 48.7791C48.2212 48.2377 47.6798 49.14 47.5486 49.14C47.4173 49.14 47.3189 49.4682 47.3189 49.4682C47.3189 49.4682 48.9759 42.5119 44.1377 42.5119C41.119 42.5119 36.919 45.826 34.8551 48.8283C33.559 49.5338 30.7535 51.0596 27.8004 52.6838C26.6684 53.3072 25.5035 53.9471 24.4043 54.5541C24.3223 54.4721 24.2566 54.39 24.1746 54.308C18.3028 48.0408 7.46156 43.6111 7.92093 35.1947C8.085 32.1268 9.1514 24.0713 28.7684 14.2932C44.8465 6.28691 57.7008 8.48535 59.914 13.3744C63.0968 20.3471 53.0414 33.3244 36.3448 35.1947C29.9808 35.9002 26.6355 33.4393 25.7988 32.5205C24.9293 31.5525 24.798 31.5033 24.4699 31.6838C23.9285 31.9791 24.273 32.8322 24.4699 33.3408C24.9621 34.6369 27.0129 36.9338 30.5058 38.0822C33.5737 39.083 41.0353 39.6408 50.0571 36.1463C60.1929 32.2416 68.0826 21.3643 65.7694 12.2588C63.4134 3.00566 48.0703 -0.029495 33.5623 5.12207C24.9178 8.19004 15.5695 13.0135 8.8446 19.2971C0.856402 26.7783 -0.421645 33.2916 0.103355 36.015C1.97203 45.6783 15.2906 51.9783 20.621 56.6377C20.3585 56.7854 20.1124 56.9166 19.8827 57.0478C17.2102 58.3768 7.05632 63.6924 4.515 69.3033C1.6439 75.6689 4.99078 80.2299 7.18757 80.8533C14.0437 82.7564 21.064 79.3275 24.8358 73.7002C28.6076 68.0729 28.1498 60.7229 26.4108 57.376C26.3944 57.3268 26.3616 57.2939 26.3451 57.2447C27.0342 56.8346 27.7397 56.4244 28.4452 56.0143C29.8052 55.2104 31.1341 54.4721 32.299 53.8322C31.6427 55.6041 31.1669 57.7369 30.9209 60.8213C30.6255 64.4307 32.1185 69.1064 34.0544 70.9439C34.9076 71.7478 35.9395 71.7643 36.5794 71.7643C38.8434 71.7643 39.8606 69.8939 40.991 67.6627C42.3855 64.9393 43.616 61.7728 43.616 61.7728C43.616 61.7728 42.0738 70.3369 46.2902 70.3369C47.8308 70.3369 49.373 68.3518 50.0637 67.3346V67.351C50.0637 67.351 50.0965 67.2853 50.1785 67.1541C50.3426 66.908 50.4246 66.7604 50.4246 66.7604V66.7111C51.048 65.6447 52.4098 63.2002 54.4589 59.1643C57.1167 53.9471 59.658 47.4338 59.658 47.4338C59.9036 48.8656 60.2434 50.2796 60.6752 51.6666C61.1346 53.2252 62.1026 54.9314 62.8737 56.5885C62.2502 57.4416 61.8729 57.9338 61.8729 57.9338C61.8741 57.9464 61.8799 57.9581 61.8893 57.9666C61.3971 58.6228 60.8393 59.3283 60.2651 60.0174C58.1667 62.5111 55.6713 65.3658 55.3432 66.1861C54.9494 67.1541 55.0479 67.876 55.8026 68.4338C56.3604 68.8604 57.3448 68.926 58.3767 68.8439C60.2634 68.7127 61.5923 68.2533 62.2322 67.958C63.4118 67.535 64.5266 66.9497 65.5446 66.2189C67.5954 64.7096 68.8423 62.5439 68.7274 59.6893C68.6618 58.1143 68.1532 56.5393 67.5298 55.0627C67.7102 54.8002 67.9071 54.5213 68.0876 54.2424C71.3344 49.501 73.8445 44.2969 73.8445 44.2969C74.0901 45.7287 74.4299 47.1427 74.8617 48.5297C75.2555 49.8586 76.0249 51.3188 76.7304 52.7461C73.6805 55.2235 71.7937 58.0946 71.1375 59.9813C69.9234 63.4758 70.875 65.0508 72.6633 65.4118C73.4672 65.5758 74.6156 65.1985 75.4687 64.8375C76.7358 64.4155 77.9304 63.8013 79.0108 63.0164C81.0616 61.5071 83.0452 59.3907 82.9139 56.5196C82.8647 55.2235 82.5037 53.9274 82.028 52.6805C84.6037 51.5977 87.949 51.0071 92.2146 51.4993C101.35 52.5657 103.138 58.275 102.793 60.6539C102.449 63.0329 100.529 64.3618 99.8895 64.7555C99.2496 65.1493 99.0527 65.2969 99.102 65.5922C99.184 66.0188 99.4793 66.0024 100.021 65.9039C100.775 65.7727 104.81 63.968 104.99 59.5547C105.253 53.9766 99.8895 47.8407 90.3886 47.8899L90.3935 47.8932ZM19.9812 71.633C16.9641 74.9307 12.7312 76.1775 10.9118 75.1275C8.95945 73.9922 9.73054 69.1393 13.4531 65.625C15.7172 63.4922 18.6359 61.5235 20.5718 60.3094C21.0148 60.0469 21.6546 59.6532 22.4421 59.1774C22.5734 59.0954 22.639 59.0625 22.639 59.0625C22.7866 58.9641 22.9507 58.8821 23.1148 58.7836C24.4748 63.7711 23.164 68.168 19.9812 71.6297V71.633ZM42.0246 56.6377C40.9746 59.2135 38.7614 65.776 37.4161 65.4314C36.2677 65.1361 35.5622 60.1322 37.1864 55.2103C38.0067 52.733 39.7458 49.7799 40.7794 48.6314C42.4348 46.7775 44.2559 46.1869 44.6824 46.9252C45.2566 47.8932 42.6809 55.0299 42.0246 56.6377ZM60.2355 65.333C59.7926 65.5627 59.3824 65.7104 59.1855 65.5955C59.0379 65.5135 59.366 65.2018 59.366 65.2018C59.366 65.2018 61.6465 62.7572 62.5488 61.6416C63.0738 60.9853 63.6809 60.2143 64.3355 59.3611C64.3355 59.4432 64.3519 59.5252 64.3519 59.6236C64.3305 62.5604 61.5103 64.5455 60.2306 65.333H60.2355ZM74.276 62.1338C73.9479 61.9041 73.9971 61.133 75.0963 58.7377C75.5229 57.8025 76.5056 56.2275 78.2135 54.7182C78.4068 55.2895 78.512 55.887 78.5252 56.49C78.5088 60.1814 75.8674 61.5596 74.2776 62.1338H74.276Z" fill="#242423"/>
</svg>
