<svg width="442" height="290" viewBox="0 0 442 290" fill="none" xmlns="http://www.w3.org/2000/svg">
<g clip-path="url(#clip0_7_73)">
<g filter="url(#filter0_d_7_73)">
<path d="M176.439 287.698V288.97H167.607L167.585 287.698L164.529 124.935H175.969L175.992 129.5L176.439 287.698Z" fill="#3F3D56"/>
</g>
<g filter="url(#filter1_d_7_73)">
<path d="M377.621 283.266L377.633 287.975V288.97H368.53V287.478L368.524 269.062L368.512 251.221V247.945L368.506 234.665L368.5 234.452L366.917 189.737V189.701L365.304 144.121V144.115L365.262 142.877L357.404 147.041L347.714 152.177L343.112 154.617L336.541 158.094L325.463 163.97H325.457L268.002 194.41L267.883 287.975V288.97H259.094L259.059 287.975L256.141 197.964L171.406 164.219L162.439 160.647L158.608 107.829C157.647 94.5901 164.752 82.4532 175.996 76.5417C178.772 75.0846 181.796 74.0065 185.011 73.3846L197.951 70.879L230.248 64.6181L240.698 62.5982L254.356 59.9505L259.741 58.908L268.595 57.1902L269.396 57.0362L271.892 56.5505L272.782 56.3787L274.229 56.1003L275.249 57.901C275.255 57.901 275.255 57.9069 275.255 57.9128L281.257 68.5511L282.336 70.4703L282.342 70.4762L287.543 79.687C287.543 79.687 287.549 79.6929 287.549 79.6988L292.613 88.6786L302.553 90.6511L307.452 91.6225L337.816 97.6466L341.819 98.4462H341.825L351.954 100.454L354.635 100.987L367.154 103.469L367.249 103.487L372.806 104.589L382.164 106.449L377.485 234.665L377.574 265.923V265.928L377.621 283.266Z" fill="#3F3D56"/>
</g>
<g filter="url(#filter2_d_7_73)">
<path d="M223.266 36.1801C221.938 33.6805 218.118 28.3317 213.718 22.3255C212.899 21.2059 212.063 20.0687 211.221 18.9195C209.721 16.8878 208.197 14.8206 206.72 12.8067C205.777 11.4798 203.933 11.1659 202.604 12.1018L193.756 18.3568C192.427 19.2927 192.107 21.1349 193.05 22.4617L195.713 26.223L196.413 27.2122L197.445 28.6694L198.684 30.4167V30.4226L199.034 30.9083L200.267 32.6557L200.95 33.6153L206.922 42.0501L209.602 45.8352C210.539 47.162 212.384 47.4759 213.712 46.54L221.41 41.0965L222.495 40.3324L222.56 40.285C223.889 39.3491 224.209 37.507 223.266 36.1801Z" fill="#3F3D56"/>
<path d="M213.706 22.1952L211.399 18.9432C211.358 18.884 211.28 18.8721 211.227 18.9136L211.221 18.9195C211.168 18.9551 211.156 19.0262 211.197 19.0854L213.504 22.3433C213.54 22.3965 213.617 22.4084 213.676 22.3729C213.694 22.361 213.706 22.3433 213.718 22.3255C213.736 22.284 213.736 22.2366 213.706 22.1952Z" fill="#3F3D56"/>
<path d="M206.489 12.9678L223.039 36.3419C223.856 37.4963 223.625 39.0759 222.539 39.9526C222.523 39.9655 222.507 39.9787 222.49 39.9915C222.461 40.0142 222.431 40.0359 222.401 40.0575C222.401 40.0575 222.283 40.1285 222.067 40.2579C221.85 40.3887 221.532 40.5785 221.136 40.8136C221.017 40.8845 220.891 40.9586 220.759 41.037C220.495 41.1929 220.205 41.3641 219.893 41.5462C219.769 41.6193 219.64 41.6943 219.509 41.771C218.838 42.1634 218.084 42.6003 217.286 43.0559C217.151 43.1334 217.015 43.2111 216.878 43.2891C216.842 43.3092 210.021 45.9457 209.828 45.673L193.278 22.2989C192.427 21.0967 192.713 19.4334 193.916 18.5833L195.217 17.6644C195.425 17.5176 195.707 17.5614 195.871 17.7558C195.882 17.7685 195.894 17.7811 195.906 17.7931C196.091 17.9745 196.385 17.9846 196.596 17.835L201.169 14.6051C201.381 14.4554 201.469 14.1755 201.36 13.9408C201.353 13.9253 201.344 13.9105 201.336 13.8957C201.207 13.676 201.26 13.3962 201.468 13.2494L202.769 12.3305C203.972 11.4804 205.638 11.7656 206.489 12.9678Z" fill="#FCF41A"/>
<path d="M196.407 27.0937L195.826 26.2763C195.802 26.2408 195.76 26.2171 195.713 26.223C195.695 26.223 195.671 26.2348 195.654 26.2467C195.6 26.2882 195.582 26.3652 195.624 26.4185L196.199 27.2359C196.241 27.2892 196.318 27.307 196.377 27.2655C196.395 27.2537 196.407 27.2359 196.413 27.2122C196.43 27.1766 196.43 27.1293 196.407 27.0937Z" fill="#3F3D56"/>
<path d="M198.672 30.2983L197.557 28.7167C197.528 28.6812 197.486 28.6634 197.445 28.6694C197.421 28.6694 197.397 28.6753 197.385 28.6871C197.326 28.7286 197.314 28.8056 197.356 28.8648L198.471 30.4404C198.512 30.4937 198.589 30.5115 198.643 30.47C198.66 30.4582 198.672 30.4404 198.684 30.4226V30.4167C198.702 30.3812 198.702 30.3338 198.672 30.2983Z" fill="#3F3D56"/>
<path d="M200.256 32.5373L199.141 30.9557C199.111 30.9202 199.07 30.9024 199.034 30.9084C199.01 30.9084 198.986 30.9143 198.969 30.9261C198.909 30.9676 198.898 31.0446 198.939 31.1038L200.054 32.6794C200.096 32.7328 200.173 32.7505 200.226 32.7091C200.244 32.6972 200.262 32.6794 200.267 32.6557C200.285 32.6202 200.285 32.5728 200.256 32.5373Z" fill="#3F3D56"/>
<path d="M195.326 18.1222L193.594 19.3454C193.524 19.3951 193.507 19.4923 193.557 19.5626C193.606 19.6328 193.704 19.6495 193.774 19.5998L195.506 18.3766C195.576 18.3269 195.593 18.2297 195.543 18.1594C195.494 18.0892 195.396 18.0725 195.326 18.1222Z" fill="#E6E6E6"/>
<path d="M202.078 13.6785C202.216 13.6785 202.328 13.5669 202.328 13.4292C202.328 13.2916 202.216 13.18 202.078 13.18C201.94 13.18 201.828 13.2916 201.828 13.4292C201.828 13.5669 201.94 13.6785 202.078 13.6785Z" fill="#E6E6E6"/>
<path d="M202.638 13.2827C202.776 13.2827 202.888 13.1711 202.888 13.0335C202.888 12.8958 202.776 12.7842 202.638 12.7842C202.5 12.7842 202.389 12.8958 202.389 13.0335C202.389 13.1711 202.5 13.2827 202.638 13.2827Z" fill="#E6E6E6"/>
<path d="M203.199 12.887C203.336 12.887 203.448 12.7754 203.448 12.6377C203.448 12.5001 203.336 12.3885 203.199 12.3885C203.061 12.3885 202.949 12.5001 202.949 12.6377C202.949 12.7754 203.061 12.887 203.199 12.887Z" fill="#E6E6E6"/>
</g>
<g filter="url(#filter3_d_7_73)">
<path d="M269.595 27.3721H235.198V59.9505H269.595V27.3721Z" fill="#2F2E41"/>
</g>
<g filter="url(#filter4_d_7_73)">
<path d="M210.891 37.9457C209.813 39.6941 208.429 41.0544 207 41.9001L197.786 59.2035L189.67 54.5832L199.891 37.5282C200.004 35.8732 200.597 34.0266 201.675 32.2782C204.138 28.2841 208.197 26.3149 210.741 27.88C213.286 29.445 213.353 33.9516 210.891 37.9457Z" fill="#A0616A"/>
</g>
<g filter="url(#filter5_d_7_73)">
<path d="M367.272 269.511L374.67 268.031L371.332 234.086L360.414 236.27L367.272 269.511Z" fill="#A0616A"/>
<path d="M395.976 279.172C396.256 280.414 395.6 281.618 394.512 281.863L379.904 285.146C379.904 285.146 377.166 279.698 370.746 278.531L372.201 286.878L364.665 288.571L362.588 275.092C362.588 275.092 358.972 268.443 362.341 263.872C365.709 259.301 362.432 260.568 362.432 260.568L362.228 251.983L373.916 250.761L376.906 263.639L385.316 275.198L394.322 277.375C395.124 277.569 395.774 278.275 395.976 279.172Z" fill="#2F2E41"/>
</g>
<g filter="url(#filter6_d_7_73)">
<path d="M239.646 95.7866L240.239 99.933C240.239 99.933 252.693 113.557 255.658 119.48L291.631 101.71L285.311 86.9016L239.646 95.7866Z" fill="#A0616A"/>
</g>
<g filter="url(#filter7_d_7_73)">
<path d="M284.718 100.525C284.718 100.525 251.105 110.003 253.975 119.48C256.844 128.957 258.617 132.849 258.617 132.849C258.617 132.849 252.1 147.32 272.264 153.835C292.427 160.351 335.72 165.09 335.72 165.09L361.518 250.089L373.675 246.832L363.806 148.949L315.556 131.919L318.522 114.149L308.44 118.295L291.631 99.7161L284.718 100.525Z" fill="#E6E6E6"/>
</g>
<g filter="url(#filter8_d_7_73)">
<path d="M334.946 183.392L342.124 185.715L355.838 154.478L345.246 151.049L334.946 183.392Z" fill="#A0616A"/>
<path d="M355.25 205.842C354.886 207.062 353.724 207.793 352.655 207.474L338.307 203.201C338.307 203.201 338.587 197.111 333.558 192.956L330.74 200.947L323.338 198.742L328.128 185.971C328.128 185.971 328.23 178.405 333.407 176.064C338.584 173.723 335.105 173.228 335.105 173.228L339.132 165.639L349.925 170.285L346.225 182.977L347.899 197.168L354.688 203.467C355.292 204.028 355.513 204.961 355.25 205.842Z" fill="#2F2E41"/>
</g>
<g filter="url(#filter9_d_7_73)">
<path d="M305.528 119.48L318.522 114.149L348.767 94.602C348.767 94.602 371.896 76.123 373.675 101.059C375.454 125.996 358.849 164.497 358.849 164.497L337.499 158.574L339.668 132.178L311.701 140.508L305.528 119.48Z" fill="#E6E6E6"/>
</g>
<g filter="url(#filter10_d_7_73)">
<path d="M272.763 53.6377L289.166 97.8598L311.405 122.442L333.348 108.226L307.994 101.71L308.666 86.9016L272.763 53.6377Z" fill="#2F2E41"/>
</g>
<g filter="url(#filter11_d_7_73)">
<path d="M360.227 110.918C358.382 110.012 356.895 108.766 355.916 107.425L337.795 99.9071L341.629 91.3994L359.598 99.9419C361.258 99.8969 363.155 100.311 365 101.217C369.215 103.286 371.563 107.134 370.245 109.813C368.927 112.492 364.442 112.987 360.227 110.918Z" fill="#A0616A"/>
</g>
<g filter="url(#filter12_d_7_73)">
<path d="M264.554 51.3616L268.745 49.545C268.745 49.545 285.311 54.258 286.793 56.9562C288.276 59.6543 296.579 70.9086 296.579 70.9086L355.291 95.7866L349.953 106.449L308.44 95.7866L285.904 72.0933L264.554 51.3616Z" fill="#2F2E41"/>
</g>
<g filter="url(#filter13_d_7_73)">
<path d="M258.031 47.8076L238.46 46.623L228.378 51.954L239.646 101.71C239.646 101.71 272.829 87.494 287.372 91.9365C287.372 91.9365 292.633 78.3234 283.338 70.4697L268.112 50.177L258.031 47.8076Z" fill="#FCF41A"/>
</g>
<g filter="url(#filter14_d_7_73)">
<path d="M237.274 49.5846L237.085 47.6634L217.703 54.9156C217.703 54.9156 210.587 60.2466 208.214 62.616C205.842 64.9853 198.726 69.724 198.726 69.724L204.656 48.4L195.167 44.2536C195.167 44.2536 166.701 81.5706 180.341 84.5323C193.981 87.494 217.703 82.163 217.703 82.163L218.889 147.912L268.409 149.393L247.949 80.9783L237.274 49.5846Z" fill="#2F2E41"/>
</g>
<g filter="url(#filter15_d_7_73)">
<path d="M252.033 43.97C261.295 43.97 268.804 36.4704 268.804 27.2191C268.804 17.9679 261.295 10.4682 252.033 10.4682C242.77 10.4682 235.261 17.9679 235.261 27.2191C235.261 36.4704 242.77 43.97 252.033 43.97Z" fill="#A0616A"/>
</g>
<g filter="url(#filter16_d_7_73)">
<path d="M244.094 0.124808C233.375 1.78185 233.886 5.76 230.454 7.82514C224.407 11.4635 222.021 21.9698 225.215 28.9029C226.068 30.7553 227.867 33.2823 226.994 36.0109C226.324 38.1054 224.391 39.3411 224.029 39.5649C221.059 41.3964 222.999 39.2175 221.656 40.7495C220.175 42.4406 222.47 44.8292 221.063 47.8575C219.816 50.5423 217.246 50.3156 216.912 52.0039C216.337 54.9109 222.936 60.7562 229.959 60.2965C236.212 59.8873 240.857 54.6072 242.413 49.6345C243.455 46.3035 243.904 40.5739 241.227 37.7879C240.851 37.3971 239.825 36.4508 238.855 34.8262C238.087 33.5405 237.077 31.8481 237.669 30.6799C238.3 29.4353 240.088 30.0904 241.227 28.9029C242.772 27.2924 240.936 24.5716 241.227 21.7949C241.719 17.0929 248.389 11.4378 255.46 12.3175C263.482 13.3155 266.424 22.0275 266.728 22.9795C267.359 24.9528 267.346 26.8618 267.321 30.6799C267.285 36.1591 267.262 39.5933 265.542 43.1189C263.068 48.1897 259.915 47.6418 259.018 51.4115C257.621 57.289 264.197 63.1919 264.949 63.8505C270.526 68.7332 278.948 70.2013 280.368 67.9969C281.648 66.0103 276.031 62.9202 276.217 56.7425C276.378 51.389 280.716 49.7571 279.775 46.0805C278.74 42.0335 273.214 42.9567 270.879 38.3802C268.701 34.1085 272.716 31.7384 272.066 22.9795C271.928 21.1267 271.345 15.809 267.914 10.5405C266.403 8.2195 264.865 5.85891 261.984 4.61719C258.758 3.2271 249.764 -0.751688 244.094 0.124808Z" fill="#2F2E41"/>
</g>
<g filter="url(#filter17_d_7_73)">
<path d="M236.977 14.9331C237.412 18.6011 242.927 20.3986 245.28 20.8565C246.277 21.0504 249.644 21.7056 252.99 20.2641C254.226 19.7313 254.677 19.2495 255.955 19.0795C257.685 18.8494 258.557 19.5068 261.292 20.2641C264.334 21.1063 265.854 21.5274 266.63 20.8565C267.898 19.7597 266.924 16.1718 265.444 13.7485C262.707 9.26759 257.698 7.88003 255.362 7.23282C252.693 6.49342 247.276 4.99291 242.315 7.82515C241.651 8.20382 236.535 11.2065 236.977 14.9331Z" fill="#2F2E41"/>
</g>
<g filter="url(#filter18_d_7_73)">
<path d="M366.679 111.033C358.765 114.719 355.619 109.905 355.619 109.905L355.622 108.47L355.646 90.0133C361.159 86.4199 370.461 91.6391 370.461 91.6391L366.881 109.995L366.679 111.033Z" fill="#3F3D56"/>
<path d="M369.24 88.2644C369.24 88.2644 361.057 84.7652 356.638 87.4008C356.638 87.4008 352.029 92.0657 355.638 93.4218L369.846 94.7969C369.846 94.7969 373.077 92.6331 371.668 90.8526C370.259 89.0722 369.24 88.2644 369.24 88.2644Z" fill="#FCF41A"/>
</g>
<path d="M76.5904 234.726L83.4133 290L135.722 289.243L136.367 234.726H76.5904Z" fill="#F2F2F2"/>
<path d="M120.036 225.535C118.469 225.633 117.604 223.69 118.789 222.557L118.907 222.089C118.891 222.052 118.876 222.014 118.86 221.977C117.272 218.197 114.43 221.765 110.333 222.019C104.309 222.392 104.399 226.943 106.732 232.265C107.366 233.709 101.988 222.053 101.988 214.229C101.988 212.263 102.096 210.297 102.316 208.335C102.497 206.731 102.747 205.137 103.07 203.557C104.818 195.019 108.603 186.886 114.062 180.093C116.687 178.66 118.876 176.42 120.198 173.735C120.673 172.767 124.753 171.949 124.929 170.887C124.631 170.927 120.095 166.16 120.32 165.881C119.904 165.25 119.159 164.936 118.704 164.321C116.443 161.259 113.328 161.794 111.702 165.954C108.229 167.705 108.195 170.609 110.326 173.402C111.682 175.179 111.869 177.584 113.059 179.486C112.936 179.643 112.809 179.794 112.686 179.951C112.639 180.011 112.592 180.071 112.546 180.132C110.625 182.614 106.79 181.978 105.721 179.029C105.643 178.814 104.981 190.467 105.479 178.405C105.977 166.344 101.634 172.484 99.435 169.703C96.8087 166.381 91.4661 167.89 91.0033 172.098C90.9989 172.138 90.9946 172.179 90.9904 172.219C91.3155 172.402 91.6341 172.597 91.9452 172.802C93.7187 173.974 93.1051 176.72 91.0037 177.043L90.9561 177.051C91.0736 178.22 91.2744 179.379 91.5681 180.518C88.7625 191.355 94.8175 195.304 103.465 195.483L103.916 196.123C103.097 198.477 102.438 200.887 101.944 203.328C101.479 205.592 101.155 207.881 100.974 210.179L100.967 210.277C100.817 212.233 98.3396 213.064 97.0946 211.548C96.7778 211.162 96.4535 210.824 96.1267 210.556C92.3775 207.48 87.0805 206.347 83.0357 203.874C81.0887 202.684 78.5937 204.222 78.9335 206.477L78.95 206.585C79.5523 206.829 80.1399 207.113 80.7078 207.431C81.0333 207.614 81.3521 207.809 81.6635 208.015C83.4372 209.186 82.8232 211.933 80.7212 212.255L80.6735 212.262C80.6393 212.267 80.6099 212.272 80.5757 212.277L80.6068 212.351C81.9591 215.528 85.1912 217.586 88.6428 217.397C92.7056 217.176 97.7521 220.568 102.203 226.567L102.208 226.567C103.089 230.401 104.377 234.148 106.032 237.718H119.693C119.742 237.566 119.786 237.41 119.83 237.258C118.567 237.336 117.294 237.263 116.05 237.033C117.064 235.791 118.077 234.539 119.091 233.297C119.115 233.272 119.135 233.248 119.155 233.223C119.669 232.588 120.188 231.957 120.702 231.321L120.702 231.32C120.734 229.368 120.5 227.423 120.036 225.535Z" fill="#F2F2F2"/>
<path d="M442 289.091C442 289.443 441.715 289.727 441.363 289.727H0V288.455H441.363C441.715 288.455 442 288.74 442 289.091Z" fill="#E6E6E6"/>
</g>
<defs>
<filter id="filter0_d_7_73" x="164.529" y="124.935" width="20.9097" height="173.036" filterUnits="userSpaceOnUse" color-interpolation-filters="sRGB">
<feFlood flood-opacity="0" result="BackgroundImageFix"/>
<feColorMatrix in="SourceAlpha" type="matrix" values="0 0 0 0 0 0 0 0 0 0 0 0 0 0 0 0 0 0 127 0" result="hardAlpha"/>
<feOffset dx="5" dy="5"/>
<feGaussianBlur stdDeviation="2"/>
<feComposite in2="hardAlpha" operator="out"/>
<feColorMatrix type="matrix" values="0 0 0 0 0 0 0 0 0 0 0 0 0 0 0 0 0 0 0.5 0"/>
<feBlend mode="normal" in2="BackgroundImageFix" result="effect1_dropShadow_7_73"/>
<feBlend mode="normal" in="SourceGraphic" in2="effect1_dropShadow_7_73" result="shape"/>
</filter>
<filter id="filter1_d_7_73" x="158.521" y="56.1003" width="232.643" height="241.87" filterUnits="userSpaceOnUse" color-interpolation-filters="sRGB">
<feFlood flood-opacity="0" result="BackgroundImageFix"/>
<feColorMatrix in="SourceAlpha" type="matrix" values="0 0 0 0 0 0 0 0 0 0 0 0 0 0 0 0 0 0 127 0" result="hardAlpha"/>
<feOffset dx="5" dy="5"/>
<feGaussianBlur stdDeviation="2"/>
<feComposite in2="hardAlpha" operator="out"/>
<feColorMatrix type="matrix" values="0 0 0 0 0 0 0 0 0 0 0 0 0 0 0 0 0 0 0.5 0"/>
<feBlend mode="normal" in2="BackgroundImageFix" result="effect1_dropShadow_7_73"/>
<feBlend mode="normal" in="SourceGraphic" in2="effect1_dropShadow_7_73" result="shape"/>
</filter>
<filter id="filter2_d_7_73" x="192.508" y="11.563" width="40.2998" height="44.5157" filterUnits="userSpaceOnUse" color-interpolation-filters="sRGB">
<feFlood flood-opacity="0" result="BackgroundImageFix"/>
<feColorMatrix in="SourceAlpha" type="matrix" values="0 0 0 0 0 0 0 0 0 0 0 0 0 0 0 0 0 0 127 0" result="hardAlpha"/>
<feOffset dx="5" dy="5"/>
<feGaussianBlur stdDeviation="2"/>
<feComposite in2="hardAlpha" operator="out"/>
<feColorMatrix type="matrix" values="0 0 0 0 0 0 0 0 0 0 0 0 0 0 0 0 0 0 0.5 0"/>
<feBlend mode="normal" in2="BackgroundImageFix" result="effect1_dropShadow_7_73"/>
<feBlend mode="normal" in="SourceGraphic" in2="effect1_dropShadow_7_73" result="shape"/>
</filter>
<filter id="filter3_d_7_73" x="235.198" y="27.3721" width="43.3969" height="41.5783" filterUnits="userSpaceOnUse" color-interpolation-filters="sRGB">
<feFlood flood-opacity="0" result="BackgroundImageFix"/>
<feColorMatrix in="SourceAlpha" type="matrix" values="0 0 0 0 0 0 0 0 0 0 0 0 0 0 0 0 0 0 127 0" result="hardAlpha"/>
<feOffset dx="5" dy="5"/>
<feGaussianBlur stdDeviation="2"/>
<feComposite in2="hardAlpha" operator="out"/>
<feColorMatrix type="matrix" values="0 0 0 0 0 0 0 0 0 0 0 0 0 0 0 0 0 0 0.5 0"/>
<feBlend mode="normal" in2="BackgroundImageFix" result="effect1_dropShadow_7_73"/>
<feBlend mode="normal" in="SourceGraphic" in2="effect1_dropShadow_7_73" result="shape"/>
</filter>
<filter id="filter4_d_7_73" x="189.67" y="27.3425" width="32.0242" height="40.8609" filterUnits="userSpaceOnUse" color-interpolation-filters="sRGB">
<feFlood flood-opacity="0" result="BackgroundImageFix"/>
<feColorMatrix in="SourceAlpha" type="matrix" values="0 0 0 0 0 0 0 0 0 0 0 0 0 0 0 0 0 0 127 0" result="hardAlpha"/>
<feOffset dx="5" dy="5"/>
<feGaussianBlur stdDeviation="2"/>
<feComposite in2="hardAlpha" operator="out"/>
<feColorMatrix type="matrix" values="0 0 0 0 0 0 0 0 0 0 0 0 0 0 0 0 0 0 0.5 0"/>
<feBlend mode="normal" in2="BackgroundImageFix" result="effect1_dropShadow_7_73"/>
<feBlend mode="normal" in="SourceGraphic" in2="effect1_dropShadow_7_73" result="shape"/>
</filter>
<filter id="filter5_d_7_73" x="360.414" y="234.086" width="44.6266" height="63.4856" filterUnits="userSpaceOnUse" color-interpolation-filters="sRGB">
<feFlood flood-opacity="0" result="BackgroundImageFix"/>
<feColorMatrix in="SourceAlpha" type="matrix" values="0 0 0 0 0 0 0 0 0 0 0 0 0 0 0 0 0 0 127 0" result="hardAlpha"/>
<feOffset dx="5" dy="5"/>
<feGaussianBlur stdDeviation="2"/>
<feComposite in2="hardAlpha" operator="out"/>
<feColorMatrix type="matrix" values="0 0 0 0 0 0 0 0 0 0 0 0 0 0 0 0 0 0 0.5 0"/>
<feBlend mode="normal" in2="BackgroundImageFix" result="effect1_dropShadow_7_73"/>
<feBlend mode="normal" in="SourceGraphic" in2="effect1_dropShadow_7_73" result="shape"/>
</filter>
<filter id="filter6_d_7_73" x="239.646" y="86.9016" width="60.9852" height="41.5783" filterUnits="userSpaceOnUse" color-interpolation-filters="sRGB">
<feFlood flood-opacity="0" result="BackgroundImageFix"/>
<feColorMatrix in="SourceAlpha" type="matrix" values="0 0 0 0 0 0 0 0 0 0 0 0 0 0 0 0 0 0 127 0" result="hardAlpha"/>
<feOffset dx="5" dy="5"/>
<feGaussianBlur stdDeviation="2"/>
<feComposite in2="hardAlpha" operator="out"/>
<feColorMatrix type="matrix" values="0 0 0 0 0 0 0 0 0 0 0 0 0 0 0 0 0 0 0.5 0"/>
<feBlend mode="normal" in2="BackgroundImageFix" result="effect1_dropShadow_7_73"/>
<feBlend mode="normal" in="SourceGraphic" in2="effect1_dropShadow_7_73" result="shape"/>
</filter>
<filter id="filter7_d_7_73" x="253.801" y="99.7161" width="128.874" height="159.373" filterUnits="userSpaceOnUse" color-interpolation-filters="sRGB">
<feFlood flood-opacity="0" result="BackgroundImageFix"/>
<feColorMatrix in="SourceAlpha" type="matrix" values="0 0 0 0 0 0 0 0 0 0 0 0 0 0 0 0 0 0 127 0" result="hardAlpha"/>
<feOffset dx="5" dy="5"/>
<feGaussianBlur stdDeviation="2"/>
<feComposite in2="hardAlpha" operator="out"/>
<feColorMatrix type="matrix" values="0 0 0 0 0 0 0 0 0 0 0 0 0 0 0 0 0 0 0.5 0"/>
<feBlend mode="normal" in2="BackgroundImageFix" result="effect1_dropShadow_7_73"/>
<feBlend mode="normal" in="SourceGraphic" in2="effect1_dropShadow_7_73" result="shape"/>
</filter>
<filter id="filter8_d_7_73" x="323.338" y="151.049" width="41.5002" height="65.5" filterUnits="userSpaceOnUse" color-interpolation-filters="sRGB">
<feFlood flood-opacity="0" result="BackgroundImageFix"/>
<feColorMatrix in="SourceAlpha" type="matrix" values="0 0 0 0 0 0 0 0 0 0 0 0 0 0 0 0 0 0 127 0" result="hardAlpha"/>
<feOffset dx="5" dy="5"/>
<feGaussianBlur stdDeviation="2"/>
<feComposite in2="hardAlpha" operator="out"/>
<feColorMatrix type="matrix" values="0 0 0 0 0 0 0 0 0 0 0 0 0 0 0 0 0 0 0.5 0"/>
<feBlend mode="normal" in2="BackgroundImageFix" result="effect1_dropShadow_7_73"/>
<feBlend mode="normal" in="SourceGraphic" in2="effect1_dropShadow_7_73" result="shape"/>
</filter>
<filter id="filter9_d_7_73" x="305.528" y="88.0134" width="77.2804" height="85.4839" filterUnits="userSpaceOnUse" color-interpolation-filters="sRGB">
<feFlood flood-opacity="0" result="BackgroundImageFix"/>
<feColorMatrix in="SourceAlpha" type="matrix" values="0 0 0 0 0 0 0 0 0 0 0 0 0 0 0 0 0 0 127 0" result="hardAlpha"/>
<feOffset dx="5" dy="5"/>
<feGaussianBlur stdDeviation="2"/>
<feComposite in2="hardAlpha" operator="out"/>
<feColorMatrix type="matrix" values="0 0 0 0 0 0 0 0 0 0 0 0 0 0 0 0 0 0 0.5 0"/>
<feBlend mode="normal" in2="BackgroundImageFix" result="effect1_dropShadow_7_73"/>
<feBlend mode="normal" in="SourceGraphic" in2="effect1_dropShadow_7_73" result="shape"/>
</filter>
<filter id="filter10_d_7_73" x="272.763" y="53.6377" width="69.5844" height="77.8039" filterUnits="userSpaceOnUse" color-interpolation-filters="sRGB">
<feFlood flood-opacity="0" result="BackgroundImageFix"/>
<feColorMatrix in="SourceAlpha" type="matrix" values="0 0 0 0 0 0 0 0 0 0 0 0 0 0 0 0 0 0 127 0" result="hardAlpha"/>
<feOffset dx="5" dy="5"/>
<feGaussianBlur stdDeviation="2"/>
<feComposite in2="hardAlpha" operator="out"/>
<feColorMatrix type="matrix" values="0 0 0 0 0 0 0 0 0 0 0 0 0 0 0 0 0 0 0.5 0"/>
<feBlend mode="normal" in2="BackgroundImageFix" result="effect1_dropShadow_7_73"/>
<feBlend mode="normal" in="SourceGraphic" in2="effect1_dropShadow_7_73" result="shape"/>
</filter>
<filter id="filter11_d_7_73" x="337.795" y="91.3994" width="41.8168" height="29.7969" filterUnits="userSpaceOnUse" color-interpolation-filters="sRGB">
<feFlood flood-opacity="0" result="BackgroundImageFix"/>
<feColorMatrix in="SourceAlpha" type="matrix" values="0 0 0 0 0 0 0 0 0 0 0 0 0 0 0 0 0 0 127 0" result="hardAlpha"/>
<feOffset dx="5" dy="5"/>
<feGaussianBlur stdDeviation="2"/>
<feComposite in2="hardAlpha" operator="out"/>
<feColorMatrix type="matrix" values="0 0 0 0 0 0 0 0 0 0 0 0 0 0 0 0 0 0 0.5 0"/>
<feBlend mode="normal" in2="BackgroundImageFix" result="effect1_dropShadow_7_73"/>
<feBlend mode="normal" in="SourceGraphic" in2="effect1_dropShadow_7_73" result="shape"/>
</filter>
<filter id="filter12_d_7_73" x="264.554" y="49.545" width="99.7365" height="65.9037" filterUnits="userSpaceOnUse" color-interpolation-filters="sRGB">
<feFlood flood-opacity="0" result="BackgroundImageFix"/>
<feColorMatrix in="SourceAlpha" type="matrix" values="0 0 0 0 0 0 0 0 0 0 0 0 0 0 0 0 0 0 127 0" result="hardAlpha"/>
<feOffset dx="5" dy="5"/>
<feGaussianBlur stdDeviation="2"/>
<feComposite in2="hardAlpha" operator="out"/>
<feColorMatrix type="matrix" values="0 0 0 0 0 0 0 0 0 0 0 0 0 0 0 0 0 0 0.5 0"/>
<feBlend mode="normal" in2="BackgroundImageFix" result="effect1_dropShadow_7_73"/>
<feBlend mode="normal" in="SourceGraphic" in2="effect1_dropShadow_7_73" result="shape"/>
</filter>
<filter id="filter13_d_7_73" x="228.378" y="46.623" width="69.4772" height="64.087" filterUnits="userSpaceOnUse" color-interpolation-filters="sRGB">
<feFlood flood-opacity="0" result="BackgroundImageFix"/>
<feColorMatrix in="SourceAlpha" type="matrix" values="0 0 0 0 0 0 0 0 0 0 0 0 0 0 0 0 0 0 127 0" result="hardAlpha"/>
<feOffset dx="5" dy="5"/>
<feGaussianBlur stdDeviation="2"/>
<feComposite in2="hardAlpha" operator="out"/>
<feColorMatrix type="matrix" values="0 0 0 0 0 0 0 0 0 0 0 0 0 0 0 0 0 0 0.5 0"/>
<feBlend mode="normal" in2="BackgroundImageFix" result="effect1_dropShadow_7_73"/>
<feBlend mode="normal" in="SourceGraphic" in2="effect1_dropShadow_7_73" result="shape"/>
</filter>
<filter id="filter14_d_7_73" x="176.641" y="44.2536" width="100.768" height="114.139" filterUnits="userSpaceOnUse" color-interpolation-filters="sRGB">
<feFlood flood-opacity="0" result="BackgroundImageFix"/>
<feColorMatrix in="SourceAlpha" type="matrix" values="0 0 0 0 0 0 0 0 0 0 0 0 0 0 0 0 0 0 127 0" result="hardAlpha"/>
<feOffset dx="5" dy="5"/>
<feGaussianBlur stdDeviation="2"/>
<feComposite in2="hardAlpha" operator="out"/>
<feColorMatrix type="matrix" values="0 0 0 0 0 0 0 0 0 0 0 0 0 0 0 0 0 0 0.5 0"/>
<feBlend mode="normal" in2="BackgroundImageFix" result="effect1_dropShadow_7_73"/>
<feBlend mode="normal" in="SourceGraphic" in2="effect1_dropShadow_7_73" result="shape"/>
</filter>
<filter id="filter15_d_7_73" x="235.261" y="10.4682" width="42.5423" height="42.5018" filterUnits="userSpaceOnUse" color-interpolation-filters="sRGB">
<feFlood flood-opacity="0" result="BackgroundImageFix"/>
<feColorMatrix in="SourceAlpha" type="matrix" values="0 0 0 0 0 0 0 0 0 0 0 0 0 0 0 0 0 0 127 0" result="hardAlpha"/>
<feOffset dx="5" dy="5"/>
<feGaussianBlur stdDeviation="2"/>
<feComposite in2="hardAlpha" operator="out"/>
<feColorMatrix type="matrix" values="0 0 0 0 0 0 0 0 0 0 0 0 0 0 0 0 0 0 0.5 0"/>
<feBlend mode="normal" in2="BackgroundImageFix" result="effect1_dropShadow_7_73"/>
<feBlend mode="normal" in="SourceGraphic" in2="effect1_dropShadow_7_73" result="shape"/>
</filter>
<filter id="filter16_d_7_73" x="216.877" y="0" width="72.681" height="77.9964" filterUnits="userSpaceOnUse" color-interpolation-filters="sRGB">
<feFlood flood-opacity="0" result="BackgroundImageFix"/>
<feColorMatrix in="SourceAlpha" type="matrix" values="0 0 0 0 0 0 0 0 0 0 0 0 0 0 0 0 0 0 127 0" result="hardAlpha"/>
<feOffset dx="5" dy="5"/>
<feGaussianBlur stdDeviation="2"/>
<feComposite in2="hardAlpha" operator="out"/>
<feColorMatrix type="matrix" values="0 0 0 0 0 0 0 0 0 0 0 0 0 0 0 0 0 0 0.5 0"/>
<feBlend mode="normal" in2="BackgroundImageFix" result="effect1_dropShadow_7_73"/>
<feBlend mode="normal" in="SourceGraphic" in2="effect1_dropShadow_7_73" result="shape"/>
</filter>
<filter id="filter17_d_7_73" x="236.95" y="6.16913" width="39.2648" height="24.0194" filterUnits="userSpaceOnUse" color-interpolation-filters="sRGB">
<feFlood flood-opacity="0" result="BackgroundImageFix"/>
<feColorMatrix in="SourceAlpha" type="matrix" values="0 0 0 0 0 0 0 0 0 0 0 0 0 0 0 0 0 0 127 0" result="hardAlpha"/>
<feOffset dx="5" dy="5"/>
<feGaussianBlur stdDeviation="2"/>
<feComposite in2="hardAlpha" operator="out"/>
<feColorMatrix type="matrix" values="0 0 0 0 0 0 0 0 0 0 0 0 0 0 0 0 0 0 0.5 0"/>
<feBlend mode="normal" in2="BackgroundImageFix" result="effect1_dropShadow_7_73"/>
<feBlend mode="normal" in="SourceGraphic" in2="effect1_dropShadow_7_73" result="shape"/>
</filter>
<filter id="filter18_d_7_73" x="354.258" y="86.4179" width="26.7659" height="35.0045" filterUnits="userSpaceOnUse" color-interpolation-filters="sRGB">
<feFlood flood-opacity="0" result="BackgroundImageFix"/>
<feColorMatrix in="SourceAlpha" type="matrix" values="0 0 0 0 0 0 0 0 0 0 0 0 0 0 0 0 0 0 127 0" result="hardAlpha"/>
<feOffset dx="5" dy="5"/>
<feGaussianBlur stdDeviation="2"/>
<feComposite in2="hardAlpha" operator="out"/>
<feColorMatrix type="matrix" values="0 0 0 0 0 0 0 0 0 0 0 0 0 0 0 0 0 0 0.5 0"/>
<feBlend mode="normal" in2="BackgroundImageFix" result="effect1_dropShadow_7_73"/>
<feBlend mode="normal" in="SourceGraphic" in2="effect1_dropShadow_7_73" result="shape"/>
</filter>
<clipPath id="clip0_7_73">
<rect width="442" height="290" fill="white"/>
</clipPath>
</defs>
</svg>
