<svg width="94" height="75" viewBox="0 0 94 75" fill="none" xmlns="http://www.w3.org/2000/svg">
<path d="M54.6034 28.4084C54.6034 24.7461 52.0335 22.7244 47.5195 22.7244H39.2166V34.5234H46.2181C51.6216 34.5068 54.6034 32.3193 54.6034 28.4084ZM84.8335 26.2873C83.2684 21.1667 83.0378 14.886 83.219 10.0306C83.4002 4.97623 79.4794 0.336182 74.2076 0.336182H20.0407C14.7525 0.336182 10.8481 4.9928 11.0293 10.0306C11.1941 14.886 10.9799 21.1667 9.41488 26.2873C7.83336 31.4245 5.18103 34.6725 0.815384 35.0868V39.8097C5.16455 40.224 7.83336 43.472 9.41488 48.6092C10.9799 53.7298 11.2106 60.0105 11.0293 64.8659C10.8481 69.9203 14.769 74.5603 20.0407 74.5603H74.1912C79.4794 74.5603 83.3837 69.9037 83.2025 64.8659C83.0378 60.0105 83.2519 53.7298 84.817 48.6092C86.3985 43.472 89.0508 40.224 93.4 39.8097V35.0868C89.0673 34.6725 86.3985 31.4245 84.8335 26.2873ZM49.1175 57.1933H32.9894V17.7032H49.0352C56.1685 17.7032 60.8471 21.581 60.8471 27.5467C60.8471 31.7393 57.7006 35.4845 53.6809 36.1308V36.3462C59.1503 36.9428 62.824 40.7543 62.824 46.0075C62.824 52.9841 57.6676 57.1933 49.1175 57.1933ZM47.4701 39.18H39.2166V52.1721H47.8326C53.4667 52.1721 56.4485 49.9018 56.4485 45.6263C56.4485 41.3674 53.3843 39.18 47.4701 39.18Z" fill="#242423"/>
</svg>
